<svg xmlns="http://www.w3.org/2000/svg" xmlns:xlink="http://www.w3.org/1999/xlink" width="906" height="623.033" viewBox="0 0 906 623.033"><defs><linearGradient id="a" x1="-11.741" y1="5.084" x2="-11.741" y2="4.933" gradientUnits="objectBoundingBox"><stop offset="0" stop-color="gray" stop-opacity="0.251"/><stop offset="0.535" stop-color="gray" stop-opacity="0.122"/><stop offset="1" stop-color="gray" stop-opacity="0.102"/></linearGradient></defs><g style="mix-blend-mode:darken;isolation:isolate"><ellipse cx="35.095" cy="5.264" rx="35.095" ry="5.264" transform="translate(9.439 340.693) rotate(-63.611)" fill="#e0e0e0"/><ellipse cx="35.095" cy="3.577" rx="35.095" ry="3.577" transform="translate(515.08 583.723) rotate(-63.611)" fill="#e0e0e0"/><rect width="21.057" height="70.189" transform="translate(246.86 444.494) rotate(39.547)" fill="#f55f44"/><rect width="23.692" height="70.189" transform="translate(251.515 522.598) rotate(-166.769)" opacity="0.05"/><rect width="21.057" height="70.189" transform="translate(251.79 522.608) rotate(-166.769)" fill="#f55f44"/><rect width="73.699" height="489.572" transform="translate(13.374 369.097) rotate(-63.611)" fill="url(#a)"/><path d="M655.016,699.1c-8.584-4.117-444.844-220.718-438.556-217.6,24.214-36.957,31.2-62.875,31.2-62.875l438.556,217.6S670.811,663.259,655.016,699.1Z" transform="translate(-202.308 -113.981)" fill="#f5f5f5"/><rect width="40.359" height="70.189" transform="translate(268.404 385.656) rotate(26.389)" opacity="0.05"/><rect width="36.849" height="70.189" transform="translate(270.079 386.404) rotate(26.389)" fill="#f55f44"/><rect width="24.566" height="70.189" transform="translate(275.032 388.592) rotate(26.389)" opacity="0.05"/><rect width="21.057" height="70.189" transform="translate(276.704 389.341) rotate(26.389)" fill="#f55f44"/><circle cx="2.926" cy="2.926" r="2.926" transform="translate(294.573 609.999)" fill="#dbdbdb"/><g transform="translate(22.389 531)" opacity="0.5"><rect width="3" height="17" transform="translate(7)" fill="#47e6b1"/><rect width="3" height="17" transform="translate(17 7) rotate(90)" fill="#47e6b1"/></g><g transform="translate(889 293.751)" opacity="0.5"><rect width="3" height="17" transform="translate(7)" fill="#47e6b1"/><rect width="3" height="17" transform="translate(17 7) rotate(90)" fill="#47e6b1"/></g><g transform="translate(40.389 59)" opacity="0.5"><rect width="3" height="17" transform="translate(7)" fill="#47e6b1"/><rect width="3" height="17" transform="translate(17 7) rotate(90)" fill="#47e6b1"/></g><g transform="translate(799 33)" opacity="0.5"><rect width="3" height="17" transform="translate(7)" fill="#47e6b1"/><rect width="3" height="17" transform="translate(17 7) rotate(90)" fill="#47e6b1"/></g><path d="M214.593,416.437A3.675,3.675,0,0,1,212.546,412a1.767,1.767,0,0,0,.08-.408h0a1.843,1.843,0,0,0-3.31-1.221h0a1.766,1.766,0,0,0-.2.362,3.675,3.675,0,0,1-4.441,2.047,1.765,1.765,0,0,0-.408-.08h0a1.843,1.843,0,0,0-1.221,3.31h0a1.766,1.766,0,0,0,.362.2,3.675,3.675,0,0,1,2.047,4.441,1.765,1.765,0,0,0-.08.408h0a1.843,1.843,0,0,0,3.31,1.221h0a1.766,1.766,0,0,0,.2-.362,3.675,3.675,0,0,1,4.441-2.047,1.767,1.767,0,0,0,.408.08h0a1.843,1.843,0,0,0,1.221-3.31h0a1.765,1.765,0,0,0-.362-.2Z" transform="translate(-202.308 -141.424)" fill="#4d8af0" opacity="0.5"/><path d="M386.593,219.437A3.675,3.675,0,0,1,384.546,215a1.769,1.769,0,0,0,.08-.408h0a1.843,1.843,0,0,0-3.31-1.221h0a1.767,1.767,0,0,0-.2.362,3.675,3.675,0,0,1-4.441,2.047,1.765,1.765,0,0,0-.408-.08h0a1.843,1.843,0,0,0-1.221,3.31h0a1.767,1.767,0,0,0,.362.2,3.675,3.675,0,0,1,2.047,4.441,1.768,1.768,0,0,0-.08.408h0a1.843,1.843,0,0,0,3.31,1.221h0a1.767,1.767,0,0,0,.2-.362,3.675,3.675,0,0,1,4.441-2.047,1.768,1.768,0,0,0,.408.08h0a1.843,1.843,0,0,0,1.221-3.31h0a1.767,1.767,0,0,0-.362-.2Z" transform="translate(-177.979 -162.981)" fill="#4d8af0" opacity="0.5"/><path d="M596.593,730.437A3.675,3.675,0,0,1,594.546,726a1.761,1.761,0,0,0,.08-.408h0a1.843,1.843,0,0,0-3.31-1.221h0a1.766,1.766,0,0,0-.2.362,3.675,3.675,0,0,1-4.441,2.048,1.764,1.764,0,0,0-.408-.08h0a1.843,1.843,0,0,0-1.221,3.31h0a1.762,1.762,0,0,0,.362.2,3.675,3.675,0,0,1,2.047,4.441,1.763,1.763,0,0,0-.08.407h0a1.843,1.843,0,0,0,3.31,1.221h0a1.764,1.764,0,0,0,.2-.362,3.675,3.675,0,0,1,4.441-2.048,1.764,1.764,0,0,0,.408.08h0a1.843,1.843,0,0,0,1.221-3.31h0A1.767,1.767,0,0,0,596.593,730.437Z" transform="translate(-148.276 -113.981)" fill="#4d8af0" opacity="0.5"/><circle cx="6" cy="6" r="6" transform="translate(864 476.186)" fill="#f55f44" opacity="0.5"/><circle cx="6" cy="6" r="6" transform="translate(709.126 525)" fill="#4d8af0" opacity="0.5"/><circle cx="6" cy="6" r="6" transform="translate(97.389 584)" fill="#47e6b1" opacity="0.5"/><circle cx="6" cy="6" r="6" transform="translate(462.628)" fill="#f55f44" opacity="0.5"/><path d="M407.2,520.481l-24,36s8,37,185,36,191-36,191-36l-33-48-101-69Z" transform="translate(-154.6 -130.8)" fill="#6c63ff"/><path d="M407.2,520.481l-24,36s8,37,185,36,191-36,191-36l-33-48-101-69Z" transform="translate(-154.6 -130.8)" opacity="0.15"/><path d="M826,224,461.159,363,16.394,224,424.1,64l200.132,79.67,7.169,2.86Z" transform="translate(-0.005)" fill="#6c63ff"/><path d="M826,224,461.159,363,16.394,224,424.1,64l200.132,79.67,7.169,2.86Z" transform="translate(-0.005)" opacity="0.15"/><path d="M553.894,257.32l-6,.36-6.71-114.01,6.19,2.86Z" transform="translate(76.476 15.303)" fill="#f5f5f5"/><path d="M411.2,386.481l-28,170s201-65,376,0l-26-180S498.2,347.481,411.2,386.481Z" transform="translate(-154.6 -137.038)" fill="#6c63ff"/><ellipse cx="29" cy="20" rx="29" ry="20" transform="translate(603.049 275.122)" fill="#f5f5f5"/></g></svg>