<svg xmlns="http://www.w3.org/2000/svg" xmlns:xlink="http://www.w3.org/1999/xlink" width="471" height="361" viewBox="0 0 471 361"><defs><clipPath id="a"><path d="M0,0H201.843S400.806,1.515,454.289,91.765,415.774,361,415.774,361H0Z" transform="translate(0 1679)" fill="#eff3f9" stroke="#707070" stroke-width="1"/></clipPath><linearGradient id="b" x1="-11.741" y1="5.084" x2="-11.741" y2="4.933" gradientUnits="objectBoundingBox"><stop offset="0" stop-color="gray" stop-opacity="0.251"/><stop offset="0.535" stop-color="gray" stop-opacity="0.122"/><stop offset="1" stop-color="gray" stop-opacity="0.102"/></linearGradient></defs><g transform="translate(0 -1679)" clip-path="url(#a)"><g transform="translate(44.669 1679)"><path d="M19.305.095C29.846-1.3,38.223-1.4,38.014-.132S29.092,3.284,18.55,4.673-.367,6.164-.159,4.9,8.764,1.484,19.305.095Z" transform="translate(11.252 196.442) rotate(-63.611)" fill="#e0e0e0"/><path d="M19.2.315C29.741-1.075,38.172-1.5,38.03-.646s-8.8,2.682-19.343,4.072S-.285,5.246-.143,4.386,8.659,1.7,19.2.315Z" transform="translate(213.036 337.067) rotate(-63.611)" fill="#e0e0e0"/><path d="M0,0,9.946,1.862l6.205,35.546L6.205,35.546Z" transform="translate(108.505 257.551) rotate(39.547)" fill="#f55f44"/><path d="M0,0,9.685.95,12.5,40.958l-9.685-.95Z" transform="translate(110.364 302.807) rotate(-166.769)" opacity="0.05"/><path d="M0,0,8.608.845l2.816,40.007-8.608-.845Z" transform="translate(110.474 302.813) rotate(-166.769)" fill="#f55f44"/><path d="M27.985,3.15,68.066-2.134,32.968,210.8l-40.082,5.284Z" transform="translate(0 237.533) rotate(-63.611)" fill="url(#b)"/><path d="M441.219,677.2c-3.428-2.386-177.654-127.89-175.143-126.083,9.67-21.414,12.46-36.431,12.46-36.431L453.679,640.772S447.527,656.436,441.219,677.2Z" transform="translate(-250.506 -338.17)" fill="#f5f5f5"/><path d="M0,0,17.553,2.893l5.032,38.173L5.032,38.173Z" transform="translate(117.109 223.459) rotate(26.389)" opacity="0.05"/><path d="M0,0,16.027,2.642l5.032,38.173L5.032,38.173Z" transform="translate(117.778 223.892) rotate(26.389)" fill="#f55f44"/><path d="M0,0,10.685,1.761l5.032,38.173L5.032,38.173Z" transform="translate(119.756 225.16) rotate(26.389)" opacity="0.05"/><path d="M0,0,9.158,1.51,14.19,39.682l-9.158-1.51Z" transform="translate(120.423 225.594) rotate(26.389)" fill="#f55f44"/><ellipse cx="1.169" cy="1.695" rx="1.169" ry="1.695" transform="translate(127.56 353.449)" fill="#dbdbdb"/><g transform="translate(18.86 307.675)" opacity="0.5"><rect width="1.198" height="9.85" transform="translate(2.796)" fill="#47e6b1"/><rect width="1.738" height="6.789" transform="translate(6.789 4.056) rotate(90)" fill="#47e6b1"/></g><g transform="translate(364.951 170.207)" opacity="0.5"><rect width="1.198" height="9.85" transform="translate(2.796)" fill="#47e6b1"/><rect width="1.738" height="6.789" transform="translate(6.789 4.056) rotate(90)" fill="#47e6b1"/></g><g transform="translate(26.048 34.186)" opacity="0.5"><rect width="1.198" height="9.85" transform="translate(2.796)" fill="#47e6b1"/><rect width="1.738" height="6.789" transform="translate(6.789 4.056) rotate(90)" fill="#47e6b1"/></g><g transform="translate(329.009 19.121)" opacity="0.5"><rect width="1.198" height="9.85" transform="translate(2.796)" fill="#47e6b1"/><rect width="1.738" height="6.789" transform="translate(6.789 4.056) rotate(90)" fill="#47e6b1"/></g><path d="M253.644,507.58a2.515,2.515,0,0,1-.818-2.571,1.437,1.437,0,0,0,.032-.236h0a1.152,1.152,0,0,0-.48-1.065.617.617,0,0,0-.842.358h0a1.221,1.221,0,0,0-.08.21c-.3.991-1.06,1.5-1.773,1.186a.513.513,0,0,0-.163-.046h0c-.324-.028-.622.255-.734.7a1.382,1.382,0,0,0,.247,1.221h0a.687.687,0,0,0,.145.116,2.516,2.516,0,0,1,.818,2.573,1.434,1.434,0,0,0-.032.236h0a1.151,1.151,0,0,0,.48,1.065.617.617,0,0,0,.842-.358h0a1.219,1.219,0,0,0,.08-.21c.3-.992,1.061-1.5,1.774-1.186a.518.518,0,0,0,.163.046h0c.324.028.622-.255.734-.7a1.382,1.382,0,0,0-.247-1.221h0a.687.687,0,0,0-.145-.116Z" transform="translate(-238.819 -348.23)" fill="#4d8af0" opacity="0.5"/><path d="M465.113,265.373a2.515,2.515,0,0,1-.817-2.571,1.441,1.441,0,0,0,.032-.236h0a1.151,1.151,0,0,0-.48-1.065.617.617,0,0,0-.842.358h0a1.219,1.219,0,0,0-.08.21c-.3.991-1.061,1.5-1.774,1.186a.52.52,0,0,0-.163-.046h0c-.324-.028-.622.255-.734.7a1.382,1.382,0,0,0,.247,1.221h0a.688.688,0,0,0,.145.116,2.516,2.516,0,0,1,.817,2.573,1.448,1.448,0,0,0-.032.236h0a1.152,1.152,0,0,0,.48,1.065.617.617,0,0,0,.842-.358h0a1.22,1.22,0,0,0,.08-.21c.3-.991,1.061-1.5,1.774-1.186a.517.517,0,0,0,.163.046h0c.324.028.622-.255.734-.7a1.382,1.382,0,0,0-.247-1.221h0a.688.688,0,0,0-.145-.116Z" transform="translate(-371.882 -232.661)" fill="#4d8af0" opacity="0.5"/><path d="M723.3,893.634a2.515,2.515,0,0,1-.817-2.571,1.436,1.436,0,0,0,.032-.236h0a1.151,1.151,0,0,0-.48-1.065.616.616,0,0,0-.842.358h0a1.189,1.189,0,0,0-.08.21c-.3.992-1.061,1.5-1.774,1.187a.517.517,0,0,0-.163-.046h0c-.324-.028-.622.255-.734.7a1.382,1.382,0,0,0,.247,1.221h0a.683.683,0,0,0,.144.116,2.516,2.516,0,0,1,.818,2.573,1.434,1.434,0,0,0-.032.236h0a1.151,1.151,0,0,0,.48,1.065.616.616,0,0,0,.842-.358h0a1.212,1.212,0,0,0,.08-.21c.3-.992,1.061-1.5,1.774-1.187a.516.516,0,0,0,.163.046h0c.324.028.622-.255.734-.7a1.382,1.382,0,0,0-.247-1.222h0A.686.686,0,0,0,723.3,893.634Z" transform="translate(-534.344 -536.444)" fill="#4d8af0" opacity="0.5"/><ellipse cx="2.396" cy="3.477" rx="2.396" ry="3.477" transform="translate(354.967 275.914)" fill="#f55f44" opacity="0.5"/><ellipse cx="2.396" cy="3.477" rx="2.396" ry="3.477" transform="translate(293.116 304.199)" fill="#4d8af0" opacity="0.5"/><ellipse cx="2.396" cy="3.477" rx="2.396" ry="3.477" transform="translate(48.812 338.385)" fill="#47e6b1" opacity="0.5"/><ellipse cx="2.396" cy="3.477" rx="2.396" ry="3.477" transform="translate(194.674)" fill="#f55f44" opacity="0.5"/><path d="M480.719,587.264l-9.585,20.859s3.195,21.439,73.882,20.859,76.278-20.859,76.278-20.859l-13.179-27.812L567.78,540.33Z" transform="translate(-369.922 -361.473)" fill="#6c63ff"/><path d="M480.719,587.264l-9.585,20.859s3.195,21.439,73.882,20.859,76.278-20.859,76.278-20.859l-13.179-27.812L567.78,540.33Z" transform="translate(-369.922 -361.473)" opacity="0.15"/><path d="M343.482,171.394l-145.7,80.54L20.156,171.394,182.978,78.686,262.9,124.849l2.863,1.657Z" transform="translate(-3.693 -41.603)" fill="#6c63ff"/><path d="M343.482,171.394l-145.7,80.54L20.156,171.394,182.978,78.686,262.9,124.849l2.863,1.657Z" transform="translate(-3.693 -41.603)" opacity="0.15"/><path d="M670.447,242.49l-2.4.209-2.68-66.06,2.472,1.657Z" transform="translate(-408.783 -84.526)" fill="#f5f5f5"/><path d="M482.317,461.928l-11.182,98.5s80.272-37.663,150.16,0l-10.383-104.3S517.061,439.33,482.317,461.928Z" transform="translate(-369.922 -317.394)" fill="#6c63ff"/><ellipse cx="11.582" cy="11.589" rx="11.582" ry="11.589" transform="translate(250.753 159.413)" fill="#f5f5f5"/></g></g></svg>